<?xml version="1.0" encoding="utf-8"?>
<!-- Generator: Adobe Illustrator 21.0.0, SVG Export Plug-In . SVG Version: 6.00 Build 0)  -->
<svg version="1.1" xmlns="http://www.w3.org/2000/svg" xmlns:xlink="http://www.w3.org/1999/xlink" x="0px" y="0px"
	 viewBox="0 0 64 64" enable-background="new 0 0 64 64" xml:space="preserve">
<g id="Layer_1">
</g>
<g id="Layer_2">
	<g>
		<path fill="none" stroke="#000000" stroke-width="1.5" stroke-miterlimit="10" d="M11.18,49.326
			c-1.064-1.689-1.68-3.684-1.68-5.816V20.443c0-6.032,4.934-10.966,10.966-10.966h23.068c6.031,0,10.966,4.935,10.966,10.966V43.51
			c0,6.031-4.935,10.966-10.966,10.966H20.466c-2.547,0-4.899-0.88-6.766-2.352"/>
		<path fill="none" stroke="#000000" stroke-width="1.5" stroke-miterlimit="10" d="M35.252,25.642
			c2.297,1.181,3.867,3.575,3.867,6.335c0,3.932-3.187,7.119-7.119,7.119s-7.119-3.187-7.119-7.119c0-2.761,1.571-5.154,3.869-6.335
			"/>
	</g>
</g>
</svg>
