<?xml version="1.0" encoding="utf-8"?>
<!-- Generator: Adobe Illustrator 21.0.0, SVG Export Plug-In . SVG Version: 6.00 Build 0)  -->
<svg version="1.1" xmlns="http://www.w3.org/2000/svg" xmlns:xlink="http://www.w3.org/1999/xlink" x="0px" y="0px"
	 viewBox="0 0 64 64" enable-background="new 0 0 64 64" xml:space="preserve">
<g id="Layer_1">
</g>
<g id="Layer_2">
	<path fill="none" stroke="#000000" stroke-width="1.5" stroke-miterlimit="10" d="M23.015,36.899c0-1.051,0.86-1.911,1.911-1.911
		h0.037c1.051,0,1.912,0.86,1.912,1.911v7.192c0,1.051-0.86,1.911-1.912,1.911h-0.037c-1.051,0-1.911-0.86-1.911-1.911V36.899z"/>
	<path fill="none" stroke="#000000" stroke-width="1.5" stroke-miterlimit="10" d="M29.973,42.392v8.52
		c0,2.103,1.72,3.823,3.823,3.823h2.586c2.103,0,3.823-1.72,3.823-3.823V13.557c0-2.103-1.72-3.823-3.823-3.823h-2.586
		c-2.103,0-3.823,1.72-3.823,3.823v25.041"/>
</g>
</svg>
